name rise30.6535peak61.5555fall82.9339.mot
datacolumns 19
datarows 15
range 8.21997400000000 8.24329600000000
endheader
time	ground_force1_vx	ground_force1_vy	ground_force1_vz	ground_force1_px	ground_force1_py	ground_force1_pz	ground_force2_vx	ground_force2_vy	ground_force2_vz	ground_force2_px	ground_force2_py	ground_force2_pz	ground_torque1_x	ground_torque1_y	ground_torque1_z	ground_torque2_x	ground_torque2_y	ground_torque2_z	
8.21997400000000	19.76376100000000	694.47778800000003	39.86046900000000	0.23665100000000	0.00000000000000	0.11608500000000	0.00000000000000	0.00000000000000	0.00000000000000	0.00000000000000	0.00000000000000	0.00000000000000	0.00000000000000	14.34307400000000	0.00000000000000	0.00000000000000	0.00000000000000	0.00000000000000	
8.22163200000000	19.27724000000000	694.94475100000000	39.91089600000000	0.23563700000000	0.00000000000000	0.11608500000000	0.00000000000000	0.00000000000000	0.00000000000000	0.00000000000000	0.00000000000000	0.00000000000000	0.00000000000000	14.42687900000000	0.00000000000000	0.00000000000000	0.00000000000000	0.00000000000000	
8.22329600000000	18.78152500000000	695.45317000000000	39.96351600000000	0.23460000000000	0.00000000000000	0.11608500000000	0.00000000000000	0.00000000000000	0.00000000000000	0.00000000000000	0.00000000000000	0.00000000000000	0.00000000000000	14.51384600000000	0.00000000000000	0.00000000000000	0.00000000000000	0.00000000000000	
8.22496800000000	18.27664300000000	696.00291000000004	40.01809500000000	0.23354000000000	0.00000000000000	0.11608700000000	0.00000000000000	0.00000000000000	0.00000000000000	0.00000000000000	0.00000000000000	0.00000000000000	0.00000000000000	14.60386400000000	0.00000000000000	0.00000000000000	0.00000000000000	0.00000000000000	
8.22662900000000	17.76264600000000	696.59385699999996	40.07440800000000	0.23245900000000	0.00000000000000	0.11608800000000	0.00000000000000	0.00000000000000	0.00000000000000	0.00000000000000	0.00000000000000	0.00000000000000	0.00000000000000	14.69682300000000	0.00000000000000	0.00000000000000	0.00000000000000	0.00000000000000	
8.22829800000000	17.23961100000000	697.22591299999999	40.13223800000000	0.23135700000000	0.00000000000000	0.11609100000000	0.00000000000000	0.00000000000000	0.00000000000000	0.00000000000000	0.00000000000000	0.00000000000000	0.00000000000000	14.79261700000000	0.00000000000000	0.00000000000000	0.00000000000000	0.00000000000000	
8.22996000000000	16.70764300000000	697.89899900000000	40.19137900000000	0.23023500000000	0.00000000000000	0.11609300000000	0.00000000000000	0.00000000000000	0.00000000000000	0.00000000000000	0.00000000000000	0.00000000000000	0.00000000000000	14.89114300000000	0.00000000000000	0.00000000000000	0.00000000000000	0.00000000000000	
8.23162900000000	16.16687200000000	698.61305300000004	40.25163600000000	0.22909300000000	0.00000000000000	0.11609600000000	0.00000000000000	0.00000000000000	0.00000000000000	0.00000000000000	0.00000000000000	0.00000000000000	0.00000000000000	14.99230100000000	0.00000000000000	0.00000000000000	0.00000000000000	0.00000000000000	
8.23329500000000	15.61745100000000	699.36802299999999	40.31282700000000	0.22793400000000	0.00000000000000	0.11609800000000	0.00000000000000	0.00000000000000	0.00000000000000	0.00000000000000	0.00000000000000	0.00000000000000	0.00000000000000	15.09599300000000	0.00000000000000	0.00000000000000	0.00000000000000	0.00000000000000	
8.23496000000000	15.05955800000000	700.16386899999998	40.37477800000000	0.22675900000000	0.00000000000000	0.11610100000000	0.00000000000000	0.00000000000000	0.00000000000000	0.00000000000000	0.00000000000000	0.00000000000000	0.00000000000000	15.20212400000000	0.00000000000000	0.00000000000000	0.00000000000000	0.00000000000000	
8.23662900000000	14.49339700000000	701.00055999999995	40.43733300000000	0.22556800000000	0.00000000000000	0.11610400000000	0.00000000000000	0.00000000000000	0.00000000000000	0.00000000000000	0.00000000000000	0.00000000000000	0.00000000000000	15.31060200000000	0.00000000000000	0.00000000000000	0.00000000000000	0.00000000000000	
8.23830600000000	13.91919100000000	701.87806999999998	40.50034700000000	0.22436300000000	0.00000000000000	0.11610600000000	0.00000000000000	0.00000000000000	0.00000000000000	0.00000000000000	0.00000000000000	0.00000000000000	0.00000000000000	15.42133700000000	0.00000000000000	0.00000000000000	0.00000000000000	0.00000000000000	
8.23996400000000	13.33718800000000	702.79637500000001	40.56368900000000	0.22314500000000	0.00000000000000	0.11610900000000	0.00000000000000	0.00000000000000	0.00000000000000	0.00000000000000	0.00000000000000	0.00000000000000	0.00000000000000	15.53424100000000	0.00000000000000	0.00000000000000	0.00000000000000	0.00000000000000	
8.24162800000000	12.74765600000000	703.75545000000000	40.62724300000000	0.22191700000000	0.00000000000000	0.11611000000000	0.00000000000000	0.00000000000000	0.00000000000000	0.00000000000000	0.00000000000000	0.00000000000000	0.00000000000000	15.64922700000000	0.00000000000000	0.00000000000000	0.00000000000000	0.00000000000000	
8.24329600000000	12.15088300000000	704.75526700000000	40.69090900000000	0.22067900000000	0.00000000000000	0.11611200000000	0.00000000000000	0.00000000000000	0.00000000000000	0.00000000000000	0.00000000000000	0.00000000000000	0.00000000000000	15.76621200000000	0.00000000000000	0.00000000000000	0.00000000000000	0.00000000000000	
